<?xml version="1.0" encoding="UTF-8" standalone="no"?>
<!-- Created with Inkscape (http://www.inkscape.org/) -->

<svg width="20.264442mm" height="26.604515mm" viewBox="0 0 20.264442 26.604515" version="1.1" class="among-us" id="among-us"
  xml:space="preserve" inkscape:export-filename="among-us-red-ejected.svg" inkscape:export-xdpi="96"
  inkscape:export-ydpi="96" xmlns:inkscape="http://www.inkscape.org/namespaces/inkscape"
  xmlns:sodipodi="http://sodipodi.sourceforge.net/DTD/sodipodi-0.dtd" xmlns="http://www.w3.org/2000/svg"
  xmlns:svg="http://www.w3.org/2000/svg">
  <sodipodi:namedview id="namedview7" pagecolor="#ffffff" bordercolor="#000000" borderopacity="0.25"
    inkscape:showpageshadow="2" inkscape:pageopacity="0.0" inkscape:pagecheckerboard="0" inkscape:deskcolor="#d1d1d1"
    inkscape:document-units="mm" showgrid="false" />
  <defs id="defs2" />
  <g class="red-character" inkscape:label="Layer 1" inkscape:groupmode="layer" id="layer1" transform="translate(-57.260026,-82.53697)">
    <g class="character" id="character" transform="matrix(0.26458333,0,0,0.26458333,57.260028,82.418566)">
      <path fill="#000000"
        d="m 33.19,101 q -3.25,0 -6.5,0 -2.07,-0.8 -3.79,-2.13 -1.7,-1.33 -2.27,-3.46 -1.42,-5.35 1.39,-10.06 1.83,-3.08 1.89,-3.18 1.35,-2.52 2.96,-4.94 1.37,-2.07 -0.87,-1 -3.77,1.78 -7.73,1.35 Q 13.9,77.1 11.47,74.17 10.77,73.32 8.05,67.86 6.83,65.42 5.69,62.94 5.34,62.17 3.21,58.06 0.93,53.64 0,48.69 0,44.81 0,40.94 1.38,29.21 12.71,26.54 a 0.63,0.63 -5.9 0 0 0.49,-0.6 q 0.3,-7.44 3.76,-13.75 1.97,-3.59 5.57,-5.97 4.57,-3.01 9.78,-4.65 3.53,-1.1 8.53,-1.12 6.01,-0.03 8.66,0.3 3.03,0.37 5.81,2.94 1.2,1.1 3.19,1.93 1.01,0.42 3.6,0.77 7.29,0.97 9.09,8.62 1.22,5.17 -0.53,9.08 -0.73,1.63 -0.14,3.31 4.8,13.6 5.73,26.35 0.68,9.28 0,15.6 -0.23,2.17 -1.62,4.3 -1.49,2.3 -2.88,4.66 a 2,1.62 65.4 0 0 -0.24,0.94 q -0.01,2.12 -0.98,3.88 -0.44,0.8 -2.2,3.53 -1.08,1.67 -2.77,3.15 -1.38,1.22 -2.82,3.03 -1.85,2.34 -2.75,3.08 -5.89,4.89 -13.64,1.44 -1.06,-0.47 -1.29,-1.17 a 0.4,0.4 -25.6 0 0 -0.6,-0.21 Q 38.76,99.89 33.19,101 Z M 18.79,35 q -0.76,4.45 0.4,7.06 1.16,2.61 1.93,8.07 0.12,0.83 0.47,1.61 1.06,2.4 1.67,4.96 1.11,4.66 1.25,5.03 2.16,5.86 7.3,9.7 a 1.35,1.34 -60.9 0 1 0.44,1.56 q -0.41,1.07 -0.38,2.18 0.05,2.15 0.05,2.17 -0.59,5.65 -4.73,10.1 -1.85,1.99 -1.95,4.75 -0.05,1.68 0.92,2.73 1.12,1.21 2.85,1.35 1.58,0.14 2.46,0.27 1.45,0.21 2.53,-0.29 9.44,-4.4 12.99,-14.88 1.01,-2.96 2.52,-6.24 a 2,2 -68.8 0 1 2.42,-1.07 q 1.48,0.46 3.12,-0.17 2.72,-1.05 5.48,-1.98 a 1.37,1.16 -38.9 0 1 0.93,0.02 q 2.46,1.07 1.69,3.85 a 1.6,1.43 -13.7 0 1 -0.54,0.79 q -3.51,2.78 -8.06,2.53 a 0.57,0.55 -82.3 0 0 -0.58,0.46 q -0.41,2.19 -1.47,4.08 -2.12,3.79 -2.17,3.9 -1.03,2.09 -2.3,4.04 a 0.72,0.67 -48.6 0 0 0.02,0.82 q 2.57,3.16 6.17,0.84 7.34,-4.74 11.35,-12.46 0.04,-0.07 0.57,-0.88 0.71,-1.1 0.01,-2.41 a 1.62,1.62 54.4 0 1 0.32,-1.95 q 6.86,-6.4 4.28,-16.08 0.74,-4.72 0.15,-9.38 -0.29,-2.31 -1.42,-9.21 -0.94,-5.75 -3.34,-11.1 A 0.41,0.4 -29.9 0 0 65.53,29.61 Q 49.23,41.73 30.81,32.19 28.4,30.94 28,28.25 27.17,22.8 29,17.97 30.38,14.3 33.96,11.73 38.93,8.17 45.1,6.73 48.69,5.89 45.01,5.75 38.76,5.51 31.5,7.14 28.87,7.73 27.02,9.4 q -4.44,4.02 -7.14,9.38 -1.13,2.24 -1.14,5.18 -0.02,5.52 0.05,11.04 z M 54.96,11 q -3.36,-0.52 -6.71,0.04 -5.76,0.41 -9.79,4.46 -5.05,2.16 -5.52,7.94 -0.42,5.05 3.18,6.63 1.71,0.74 6.34,1 10.97,0.62 20.79,-5.57 5.38,-3.39 3.79,-9.25 0.2,-0.77 0.08,-1.51 A 1.23,1.01 14.7 0 0 66.57,13.98 Q 62.39,11.38 58.75,10.5 57.1,10.1 54.96,11 Z M 5.25,43.04 q -1.1,6.44 1.81,11.4 4.75,8.07 7.33,14.31 0.87,2.1 2.09,2.8 1.66,0.96 3.72,0.71 a 1.4,1.36 17.7 0 0 0.84,-0.42 q 1.92,-2.07 -0.11,-4.06 A 1.67,1.43 21.4 0 1 20.48,66.94 Q 20.03,64.26 19.75,63.5 17.28,56.73 15.98,49.66 15.47,46.89 14.87,44.79 14.17,42.38 13.5,39.96 l -0.41,-7.11 a 0.64,0.59 -12.9 0 0 -0.87,-0.5 q -1.72,0.69 -3.35,1.68 -1.68,1.02 -2.42,2.69 -1.32,2.98 -1.2,6.32 z"
        id="outline" />
      <path fill="#ff0000"
        d="m 70.75,59.46 q -1.51,3 -3.71,5.44 -2.18,2.42 -5.4,3.5 -5.42,1.8 -11.13,1.28 -2.51,-0.23 -5.9,-1.42 -2.87,-1.02 -5.7,-2.12 -2.49,-0.98 -4.66,-3.39 -4.74,-5.27 -6.13,-6.88 -6.88,-7.9 -8.53,-18.24 -0.01,-0.09 -0.01,-1.25 0,-0.9 -0.79,-1.38 -0.07,-5.52 -0.05,-11.04 0.01,-2.94 1.14,-5.18 2.7,-5.36 7.14,-9.38 1.85,-1.67 4.48,-2.26 7.26,-1.63 13.51,-1.39 3.68,0.14 0.09,0.98 -6.17,1.44 -11.14,5 -3.58,2.57 -4.96,6.24 -1.83,4.83 -1,10.28 0.4,2.69 2.81,3.94 18.42,9.54 34.72,-2.58 a 0.41,0.4 -29.9 0 1 0.61,0.16 q 2.4,5.35 3.34,11.1 1.13,6.9 1.42,9.21 0.59,4.66 -0.15,9.38 z"
        id="body" />
      <path fill="#00ffea"
        d="M 67.04,16.25 Q 62.56,22.49 54.5,25 45.54,27.8 38.24,23.21 A 1.2,1.14 10.8 0 1 37.7,22.45 q -0.76,-3.54 0.76,-6.95 4.03,-4.05 9.79,-4.46 -3.8,1.77 -4.81,3.15 -2.41,3.26 1.81,3.81 3.78,0.5 9.51,-2.53 4.07,-2.14 0.2,-4.47 2.14,-0.9 3.79,-0.5 3.64,0.88 7.82,3.48 a 1.23,1.01 14.7 0 1 0.55,0.76 q 0.12,0.74 -0.08,1.51 z"
        id="visor-2" style="fill:#00ffea;fill-opacity:1" />
      <path fill="#ffffff"
        d="m 54.96,11 q 3.87,2.33 -0.2,4.47 -5.73,3.03 -9.51,2.53 -4.22,-0.55 -1.81,-3.81 1.01,-1.38 4.81,-3.15 3.35,-0.56 6.71,-0.04 z"
        id="visor-1" />
      <path fill="#007e73"
        d="m 38.46,15.5 q -1.52,3.41 -0.76,6.95 a 1.2,1.14 10.8 0 0 0.54,0.76 q 7.3,4.59 16.26,1.79 8.06,-2.51 12.54,-8.75 1.59,5.86 -3.79,9.25 -9.82,6.19 -20.79,5.57 -4.63,-0.26 -6.34,-1 -3.6,-1.58 -3.18,-6.63 0.47,-5.78 5.52,-7.94 z"
        id="visor-3" style="fill:#007e73;fill-opacity:1" />
      <path fill="#ff0000"
        d="m 13.5,39.96 q -4.58,0.37 -8.25,3.08 -0.12,-3.34 1.2,-6.32 0.74,-1.67 2.42,-2.69 1.63,-0.99 3.35,-1.68 a 0.64,0.59 -12.9 0 1 0.87,0.5 z"
        id="backpack-1" />
      <path fill="#ff0000"
        d="m 18.79,35 q 0.79,0.48 0.79,1.38 0,1.16 0.01,1.25 1.65,10.34 8.53,18.24 1.39,1.61 6.13,6.88 2.17,2.41 4.66,3.39 2.83,1.1 5.7,2.12 3.39,1.19 5.9,1.42 5.71,0.52 11.13,-1.28 3.22,-1.08 5.4,-3.5 2.2,-2.44 3.71,-5.44 2.58,9.68 -4.28,16.08 a 1.62,1.62 54.4 0 0 -0.32,1.95 q 0.7,1.31 -0.01,2.41 -0.53,0.81 -0.57,0.88 -4.01,7.72 -11.35,12.46 -3.6,2.32 -6.17,-0.84 a 0.72,0.67 -48.6 0 1 -0.02,-0.82 q 1.27,-1.95 2.3,-4.04 0.05,-0.11 2.17,-3.9 1.06,-1.89 1.47,-4.08 a 0.57,0.55 -82.3 0 1 0.58,-0.46 q 4.55,0.25 8.06,-2.53 a 1.6,1.43 -13.7 0 0 0.54,-0.79 Q 63.92,73 61.46,71.93 a 1.37,1.16 -38.9 0 0 -0.93,-0.02 q -2.76,0.93 -5.48,1.98 -1.64,0.63 -3.12,0.17 a 2,2 -68.8 0 0 -2.42,1.07 Q 48,78.41 46.99,81.37 43.44,91.85 34,96.25 q -1.08,0.5 -2.53,0.29 -0.88,-0.13 -2.46,-0.27 -1.73,-0.14 -2.85,-1.35 -0.97,-1.05 -0.92,-2.73 0.1,-2.76 1.95,-4.75 4.14,-4.45 4.73,-10.1 0,-0.02 -0.05,-2.17 -0.03,-1.11 0.38,-2.18 A 1.35,1.34 -60.9 0 0 31.81,71.43 Q 26.67,67.59 24.51,61.73 24.37,61.36 23.26,56.7 22.65,54.14 21.59,51.74 21.24,50.96 21.12,50.13 20.35,44.67 19.19,42.06 18.03,39.45 18.79,35 Z"
        id="pants" style="fill:#ff0000" />
      <path fill="#ff0000"
        d="m 13.5,39.96 q 0.67,2.42 1.37,4.83 0.6,2.1 1.11,4.87 1.3,7.07 3.77,13.84 0.28,0.76 0.73,3.44 a 1.67,1.43 21.4 0 0 0.45,0.84 q 2.03,1.99 0.11,4.06 a 1.4,1.36 17.7 0 1 -0.84,0.42 q -2.06,0.25 -3.72,-0.71 -1.22,-0.7 -2.09,-2.8 Q 11.81,62.51 7.06,54.44 4.15,49.48 5.25,43.04 8.92,40.33 13.5,39.96 Z"
        id="backpack-2" style="fill:#ff0000" />
    </g>
  </g>
</svg>