<?xml version="1.0" encoding="UTF-8" standalone="no"?>
<svg
   class="galaxian"
   version="1.1"
   viewBox="0 0 328 350"
   id="svg56"
   sodipodi:docname="galaxian-ship.svg"
   inkscape:version="1.2.1 (9c6d41e410, 2022-07-14)"
   xmlns:inkscape="http://www.inkscape.org/namespaces/inkscape"
   xmlns:sodipodi="http://sodipodi.sourceforge.net/DTD/sodipodi-0.dtd"
   xmlns="http://www.w3.org/2000/svg"
   xmlns:svg="http://www.w3.org/2000/svg">
  <defs
     id="defs60" />
  <sodipodi:namedview
     id="namedview58"
     pagecolor="#ffffff"
     bordercolor="#000000"
     borderopacity="0.25"
     inkscape:showpageshadow="2"
     inkscape:pageopacity="0.0"
     inkscape:pagecheckerboard="0"
     inkscape:deskcolor="#d1d1d1"
     showgrid="false"
     inkscape:zoom="2.5057143"
     inkscape:cx="163.02737"
     inkscape:cy="111.3455"
     inkscape:window-width="1920"
     inkscape:window-height="1057"
     inkscape:window-x="1912"
     inkscape:window-y="131"
     inkscape:window-maximized="1"
     inkscape:current-layer="svg56" />
  <path
     class="body"
     fill="#dedede"
     d="M 152.31,0.00 Q 163.06,0.00 173.81,0.00 Q 174.14,32.12 174.00,65.33 A 0.66,0.66 -89.6 0 0 174.66,66.00 L 195.97,66.00 A 1.03,1.03 -45.0 0 1 197.00,67.03 L 197.00,152.44 A 0.58,0.57 0.5 0 0 197.57,153.01 L 217.32,153.17 A 0.52,0.52 45.0 0 1 217.83,153.68 L 218.04,174.25 L 218.00,196.01 A 0.99,0.99 45.0 0 0 218.99,197.00 L 239.44,197.00 A 0.58,0.57 89.5 0 1 240.01,197.57 L 240.17,217.31 A 0.54,0.52 1.1 0 0 240.69,217.83 Q 251.32,218.31 261.96,217.75 L 262.06,239.44 A 0.51,0.50 0.0 0 0 262.57,239.94 L 283.33,240.00 A 0.67,0.66 -0.0 0 1 284.00,240.66 L 284.00,261.39 A 0.81,0.79 -0.4 0 0 284.82,262.18 L 305.17,262.01 A 0.84,0.84 -89.7 0 0 306.01,261.18 L 306.29,218.00 Q 317.15,217.95 328.00,218.06 Q 328.00,284.03 328.00,350.00 Q 317.22,350.00 306.44,350.00 Q 306.35,349.86 306.24,349.74 A 0.93,0.64 32.5 0 1 306.00,349.17 L 306.19,328.54 A 0.48,0.47 90.0 0 0 305.72,328.06 L 285.26,328.00 A 1.26,1.26 -45.0 0 1 284.00,326.74 L 283.94,306.57 A 0.51,0.51 0.0 0 0 283.43,306.06 L 263.26,306.00 A 1.26,1.26 -45.0 0 1 262.00,304.74 L 261.94,284.57 A 0.51,0.50 90.0 0 0 261.44,284.06 L 240.00,284.04 L 218.80,284.00 A 0.81,0.81 89.6 0 1 217.99,283.20 L 217.94,262.57 A 0.51,0.51 0.0 0 0 217.43,262.06 L 197.66,262.00 A 0.69,0.67 -89.6 0 0 196.99,262.68 L 196.75,305.79 L 174.57,306.06 A 0.52,0.50 -0.6 0 0 174.06,306.56 Q 173.91,335.93 174.00,349.00 Q 174.00,349.70 173.69,350.00 Q 163.06,350.00 152.44,350.00 Q 152.00,349.46 152.00,348.50 Q 152.00,327.50 152.00,306.58 A 0.58,0.58 0.1 0 0 151.42,306.00 L 131.25,305.96 L 130.82,262.68 A 0.52,0.50 89.4 0 0 130.32,262.17 L 109.56,262.05 A 0.52,0.50 90.0 0 0 109.06,262.57 L 109.00,283.11 A 0.93,0.91 -0.3 0 1 108.08,284.02 L 87.04,284.25 L 66.72,284.02 A 0.73,0.71 -89.6 0 0 66.00,284.75 L 66.00,305.33 A 0.67,0.67 -89.6 0 1 65.33,306.00 L 44.57,306.00 A 0.84,0.84 88.4 0 0 43.73,306.89 Q 44.29,317.27 43.84,327.31 A 0.55,0.53 -88.3 0 1 43.31,327.83 L 22.87,327.98 A 0.89,0.87 -0.3 0 0 21.99,328.85 Q 22.05,340.13 21.94,350.00 Q 10.97,350.00 0.00,350.00 Q 0.00,283.97 0.00,217.94 Q 10.85,218.05 21.71,218.00 L 21.99,261.43 A 0.58,0.57 89.5 0 0 22.56,262.00 L 43.30,262.18 A 0.69,0.67 0.4 0 0 44.00,261.51 L 44.00,240.98 A 0.99,0.98 -0.0 0 1 44.99,240.00 L 65.45,239.94 A 0.50,0.49 -90.0 0 0 65.94,239.44 L 66.04,218.00 L 86.48,218.00 A 0.52,0.52 90.0 0 0 87.00,217.48 L 87.00,198.10 A 0.88,0.85 90.0 0 1 87.85,197.22 L 108.19,197.02 A 0.82,0.80 -0.4 0 0 109.00,196.22 L 108.96,174.00 L 109.00,153.73 A 0.73,0.73 0.6 0 1 109.73,153.00 L 130.49,153.00 A 0.51,0.51 0.0 0 0 131.00,152.49 L 131.00,67.27 A 1.28,1.27 -0.2 0 1 132.27,66.00 L 151.43,65.94 A 0.51,0.51 0.0 0 0 151.94,65.43 Q 152.10,16.08 152.00,1.75 Q 151.99,0.50 152.31,0.00 ZM 174.06,196.20 L 174.00,174.67 A 0.67,0.67 -45.0 0 0 173.33,174.00 L 152.56,174.00 A 0.58,0.57 -89.5 0 0 151.99,174.57 L 151.83,196.31 A 0.53,0.52 -89.4 0 1 151.31,196.83 L 131.81,196.98 A 0.82,0.80 -0.4 0 0 131.00,197.78 L 131.00,238.98 A 1.02,1.02 -45.0 0 0 132.02,240.00 L 151.33,240.00 A 0.67,0.67 45.0 0 0 152.00,239.33 L 152.00,218.67 A 0.67,0.67 -0.0 0 1 152.67,218.00 L 173.01,218.00 A 0.99,0.99 45.0 0 1 174.00,218.99 L 174.00,239.47 A 0.52,0.52 45.0 0 0 174.52,239.99 L 196.31,239.83 A 0.52,0.51 -0.6 0 0 196.82,239.32 L 196.99,197.89 A 0.95,0.92 0.3 0 0 196.05,196.97 L 174.57,196.71 A 0.51,0.51 -89.7 0 1 174.06,196.20 ZM 88.78,198.98 Q 88.21,200.15 88.96,199.42 Q 89.06,199.32 89.10,199.18 Q 89.69,197.13 88.78,198.98 Z"
     id="path32" />
  <path
     class="left-inner-laser-top"
     fill="#ff0000"
     d="M 86.71,153.00 L 66.29,153.00 L 66.01,109.82 A 0.82,0.82 -0.0 0 1 66.83,109.00 L 86.43,109.06 A 0.51,0.49 0.6 0 1 86.94,109.56 L 86.71,153.00 Z"
     id="path34" />
  <path
     class="right-inner-laser-top"
     fill="#ff0000"
     d="M 261.71,153.00 L 240.29,153.00 L 240.01,109.88 A 0.87,0.87 0.3 0 1 240.89,109.01 L 261.44,109.06 A 0.50,0.49 0.6 0 1 261.94,109.56 L 261.71,153.00 Z"
     id="path36" />
  <path
     class="right-laser"
     fill="#fbd000"
     d="m 261.76118,108.59708 h -21.42 l -0.28,-43.119997 a 0.87,0.87 0 0 1 0.88,-0.87 l 20.55,0.05 a 0.5,0.49 0.6 0 1 0.5,0.5 z"
     id="path36-2"
     style="fill:#fbd000;fill-opacity:1"
     inkscape:label="right-laser" />
  <path
     class="left-inner-laser-base"
     fill="#dedede"
     d="M 66.29,153.00 L 86.71,153.00 L 87.04,174.25 L 87.00,196.33 A 0.67,0.67 -0.0 0 1 86.33,197.00 Q 76.25,197.00 66.75,196.93 Q 65.99,196.92 66.21,196.00 Q 65.63,174.50 66.29,153.00 Z"
     id="path38" />
  <path
     class="right-inner-laser-base"
     fill="#dedede"
     d="M 240.29,153.00 L 261.71,153.00 Q 262.37,174.87 261.79,196.75 L 240.86,196.97 A 0.92,0.87 89.4 0 1 239.98,196.06 L 239.75,174.04 Q 240.29,173.39 240.24,172.56 Q 239.65,162.78 240.29,153.00 Z"
     id="path40" />
  <path
     class="left-outer-laser-top"
     fill="#ff0000"
     d="M 21.71,218.00 Q 10.85,218.05 0.00,217.94 Q 0.00,196.06 0.00,174.19 Q 10.66,173.73 21.32,174.17 A 0.53,0.53 -89.0 0 1 21.83,174.68 Q 22.35,196.34 21.71,218.00 Z"
     id="path42" />
  <path
     class="left-window"
     fill="#0068de"
     d="M 108.96,174.00 L 109.00,196.22 A 0.82,0.80 -0.4 0 1 108.19,197.02 L 87.85,197.22 A 0.88,0.85 -90.0 0 0 87.00,198.10 L 87.00,217.48 A 0.52,0.52 -90.0 0 1 86.48,218.00 L 66.04,218.00 L 66.21,196.00 Q 65.99,196.92 66.75,196.93 Q 76.25,197.00 86.33,197.00 A 0.67,0.67 0.0 0 0 87.00,196.33 L 87.04,174.25 L 108.96,174.00 Z"
     id="path44" />
  <path
     class="main-window"
     fill="#ff0000"
     d="M 174.57,196.71 L 196.05,196.97 A 0.95,0.92 0.3 0 1 196.99,197.89 L 196.82,239.32 A 0.52,0.51 -0.6 0 1 196.31,239.83 L 174.52,239.99 A 0.52,0.52 -0.0 0 1 174.00,239.47 L 174.00,218.99 A 0.99,0.99 45.0 0 0 173.01,218.00 L 152.67,218.00 A 0.67,0.67 45.0 0 0 152.00,218.67 L 152.00,239.33 A 0.67,0.67 -0.0 0 1 151.33,240.00 L 132.02,240.00 A 1.02,1.02 -45.0 0 1 131.00,238.98 L 131.00,197.78 A 0.82,0.80 -0.4 0 1 131.81,196.98 L 151.31,196.83 A 0.53,0.52 -89.4 0 0 151.83,196.31 L 151.99,174.57 A 0.58,0.57 -89.5 0 1 152.56,174.00 L 173.33,174.00 A 0.67,0.67 -0.0 0 1 174.00,174.67 L 174.06,196.20 A 0.51,0.51 90.0 0 0 174.57,196.71 Z"
     id="path46" />
  <path
     class="right-window"
     fill="#0068de"
     d="M 239.75,174.04 L 239.98,196.06 A 0.92,0.87 89.4 0 0 240.86,196.97 L 261.79,196.75 L 261.96,217.75 Q 251.32,218.31 240.69,217.83 A 0.54,0.52 1.1 0 1 240.17,217.31 L 240.01,197.57 A 0.58,0.57 89.5 0 0 239.44,197.00 L 218.99,197.00 A 0.99,0.99 45.0 0 1 218.00,196.01 L 218.04,174.25 L 239.75,174.04 Z"
     id="path48" />
  <path
     class="right-outer-laser-top"
     fill="#ff0000"
     d="M 328.00,174.06 Q 328.00,196.06 328.00,218.06 Q 317.15,217.95 306.29,218.00 Q 306.00,217.69 306.00,217.00 Q 306.00,195.75 306.00,174.95 A 0.95,0.95 -0.3 0 1 306.94,174.00 Q 317.75,173.95 328.00,174.06 Z"
     id="path50" />
  <path
     class="left-tail"
     fill="#ff0000"
     d="M 131.25,305.96 L 131.03,326.77 A 1.24,1.20 -89.8 0 1 129.83,328.00 L 87.67,328.00 A 0.67,0.67 89.6 0 1 87.00,327.33 L 87.04,284.25 L 108.08,284.02 A 0.93,0.91 -0.3 0 0 109.00,283.11 L 109.06,262.57 A 0.52,0.50 -90.0 0 1 109.56,262.05 L 130.32,262.17 A 0.52,0.50 89.4 0 1 130.82,262.68 L 131.25,305.96 Z"
     id="path52" />
  <path
     class="right-tail"
     fill="#ff0000"
     d="M 240.00,284.04 L 240.00,326.68 A 1.32,1.32 -45.0 0 1 238.68,328.00 L 197.89,328.00 A 0.94,0.91 89.4 0 1 196.98,327.08 L 196.75,305.79 L 196.99,262.68 A 0.69,0.67 -89.6 0 1 197.66,262.00 L 217.43,262.06 A 0.51,0.51 -0.0 0 1 217.94,262.57 L 217.99,283.20 A 0.81,0.81 89.6 0 0 218.80,284.00 L 240.00,284.04 Z"
     id="path54" />
  <path
     class="left-laser"
     fill="#fbd000"
     d="m 87.359811,108.59708 h -21.42 l -0.28,-43.119997 a 0.87,0.87 0 0 1 0.88,-0.87 l 20.55,0.05 a 0.5,0.49 0.6 0 1 0.5,0.5 z"
     id="path2513"
     style="fill:#fbd000;fill-opacity:1"
     inkscape:label="left-laser" />
</svg>
