<?xml version="1.0" encoding="UTF-8" standalone="no"?>
<!DOCTYPE svg PUBLIC "-//W3C//DTD SVG 1.1//EN" "http://www.w3.org/Graphics/SVG/1.1/DTD/svg11.dtd">
<svg class="mario-coin" xmlns="http://www.w3.org/2000/svg" version="1.1" viewBox="0 0 820 849">
<path class="outline-1" fill="#000000" d="M 650.55,184.94 L 697.43,185.06 A 0.51,0.50 0.0 0 1 697.94,185.56 L 698.06,280.45 A 0.49,0.49 0.0 0 0 698.55,280.94 L 745.43,281.06 A 0.51,0.49 -0.0 0 1 745.94,281.55 L 745.94,568.44 A 0.50,0.50 -45.0 0 1 745.44,568.94 L 698.82,569.00 A 0.82,0.82 0.0 0 0 698.00,569.82 L 697.94,664.43 A 0.51,0.50 -90.0 0 1 697.44,664.94 L 650.82,665.00 A 0.82,0.82 0.0 0 0 650.00,665.82 L 649.94,760.43 A 0.51,0.51 -45.0 0 1 649.43,760.94 L 554.82,761.00 A 0.82,0.82 0.0 0 0 554.00,761.82 L 553.94,808.44 A 0.50,0.49 -90.0 0 1 553.45,808.94 L 266.56,808.94 A 0.50,0.49 0.0 0 1 266.06,808.45 L 265.94,761.57 A 0.51,0.50 90.0 0 0 265.44,761.06 L 170.56,760.94 A 0.51,0.50 90.0 0 1 170.06,760.43 L 169.94,713.55 A 0.49,0.49 0.0 0 0 169.45,713.06 L 122.57,712.94 A 0.51,0.50 0.0 0 1 122.06,712.44 L 121.94,617.55 A 0.49,0.49 -89.9 0 0 121.45,617.06 L 74.57,616.94 A 0.51,0.49 0.0 0 1 74.06,616.45 L 74.06,233.56 A 0.50,0.49 -90.0 0 1 74.55,233.06 L 121.43,232.94 A 0.51,0.50 -0.0 0 0 121.94,232.44 L 122.06,137.56 A 0.51,0.50 -0.0 0 1 122.57,137.06 L 169.45,136.94 A 0.49,0.49 0.0 0 0 169.94,136.45 L 170.06,89.57 A 0.51,0.50 -90.0 0 1 170.56,89.06 L 265.45,88.94 A 0.49,0.49 0.1 0 0 265.94,88.45 L 266.06,41.57 A 0.51,0.49 -90.0 0 1 266.55,41.06 L 553.44,41.06 A 0.50,0.49 0.0 0 1 553.94,41.55 L 554.06,88.43 A 0.51,0.50 90.0 0 0 554.56,88.94 L 649.44,89.06 A 0.50,0.50 45.0 0 1 649.94,89.56 L 650.06,184.45 A 0.49,0.49 0.0 0 0 650.55,184.94 ZM 314.00,136.96 L 218.55,137.06 A 0.51,0.49 -89.4 0 0 218.06,137.56 L 217.75,185.04 L 170.56,185.00 A 0.56,0.56 0.0 0 0 170.00,185.56 Q 170.00,233.25 170.00,280.25 Q 170.00,280.88 169.75,281.04 L 122.56,281.00 A 0.56,0.56 0.0 0 0 122.00,281.56 L 122.00,568.44 A 0.56,0.56 0.0 0 0 122.56,569.00 L 169.31,569.00 A 0.69,0.69 -89.7 0 1 170.00,569.69 L 170.00,664.44 A 0.56,0.56 0.0 0 0 170.56,665.00 L 217.32,665.00 A 0.68,0.68 0.1 0 1 218.00,665.68 L 218.00,712.44 A 0.56,0.56 0.0 0 0 218.56,713.00 L 266.50,712.96 L 313.13,713.00 A 0.87,0.87 -45.0 0 1 314.00,713.87 L 314.00,760.50 A 0.50,0.50 -45.0 0 0 314.50,761.00 L 457.13,761.00 A 0.87,0.87 -45.0 0 0 458.00,760.13 L 458.00,713.88 A 0.88,0.88 45.0 0 1 458.88,713.00 L 553.13,713.00 A 0.87,0.87 -45.0 0 0 554.00,712.13 L 554.00,665.88 A 0.88,0.88 45.0 0 1 554.88,665.00 L 601.15,665.00 A 0.85,0.85 45.0 0 0 602.00,664.15 L 602.00,569.85 A 0.85,0.85 45.0 0 1 602.85,569.00 L 649.15,569.00 A 0.85,0.85 45.0 0 0 650.00,568.15 L 650.00,281.50 A 0.50,0.50 -45.0 0 0 649.50,281.00 L 602.85,281.00 A 0.85,0.85 -45.0 0 1 602.00,280.15 L 602.00,185.50 A 0.50,0.50 -45.0 0 0 601.50,185.00 L 554.85,185.00 A 0.85,0.85 -0.0 0 1 554.00,184.15 L 554.00,137.50 A 0.50,0.50 -45.0 0 0 553.50,137.00 L 458.00,136.96 L 457.94,89.55 A 0.50,0.49 0.0 0 0 457.44,89.06 L 314.55,89.06 A 0.49,0.49 0.1 0 0 314.06,89.55 L 314.00,136.96 Z"/>
<path class="highlight-1" fill="#ffffff" d="M 458.00,136.96 Q 350.01,137.07 318.00,137.00 Q 315.53,136.99 314.29,137.25 Q 314.23,137.02 314.00,136.96 L 314.06,89.55 A 0.49,0.49 -0.1 0 1 314.55,89.06 L 457.44,89.06 A 0.50,0.49 0.0 0 1 457.94,89.55 L 458.00,136.96 Z"/>
<path class="highlight-2" fill="#fefefe" d="M 314.00,136.96 Q 314.23,137.02 314.29,137.25 L 314.01,183.99 A 1.03,1.01 -0.0 0 0 315.04,185.00 L 458.00,185.04 L 457.96,233.25 L 363.08,233.01 A 1.03,1.02 90.0 0 0 362.06,234.04 Q 361.95,423.53 362.00,613.75 Q 362.00,615.08 362.50,616.96 L 314.25,617.04 Q 313.37,616.59 314.06,616.06 Q 314.00,400.69 313.94,185.52 A 0.52,0.52 90.0 0 0 313.42,185.00 Q 267.25,185.00 221.25,185.00 Q 219.29,185.00 218.25,185.29 Q 217.84,185.31 217.75,185.04 L 218.06,137.56 A 0.51,0.49 -89.4 0 1 218.55,137.06 L 314.00,136.96 Z"/>
<path class="gold-1" fill="#fdc006" d="M 458.00,136.96 L 553.50,137.00 A 0.50,0.50 45.0 0 1 554.00,137.50 L 554.00,184.15 A 0.85,0.85 -0.2 0 0 554.85,185.00 L 601.50,185.00 A 0.50,0.50 45.0 0 1 602.00,185.50 L 602.00,280.15 A 0.85,0.85 -45.0 0 0 602.85,281.00 L 649.50,281.00 A 0.50,0.50 45.0 0 1 650.00,281.50 L 650.00,568.15 A 0.85,0.85 45.0 0 1 649.15,569.00 L 602.85,569.00 A 0.85,0.85 45.0 0 0 602.00,569.85 L 602.00,664.15 A 0.85,0.85 45.0 0 1 601.15,665.00 L 554.88,665.00 A 0.88,0.88 0.0 0 0 554.00,665.88 L 554.00,712.13 A 0.87,0.87 45.0 0 1 553.13,713.00 L 458.88,713.00 A 0.88,0.88 0.0 0 0 458.00,713.88 L 458.00,760.13 A 0.87,0.87 45.0 0 1 457.13,761.00 L 314.50,761.00 A 0.50,0.50 45.0 0 1 314.00,760.50 L 314.00,713.87 A 0.87,0.87 45.0 0 0 313.13,713.00 L 266.50,712.96 Q 266.04,711.26 266.03,709.50 Q 266.00,687.50 266.00,665.85 A 0.85,0.85 -45.0 0 0 265.15,665.00 L 219.52,665.00 A 1.52,1.52 0.3 0 1 218.00,663.48 L 218.00,569.50 A 0.50,0.50 -45.0 0 0 217.50,569.00 L 171.41,569.00 A 1.41,1.41 0.3 0 1 170.00,567.59 Q 170.00,437.37 170.00,308.00 Q 170.00,288.95 170.25,281.29 Q 192.36,280.79 214.48,280.99 Q 214.60,280.99 216.01,281.12 Q 218.31,281.34 218.12,279.04 Q 218.00,277.52 218.00,277.46 Q 217.82,231.37 218.25,185.29 Q 219.29,185.00 221.25,185.00 Q 267.25,185.00 313.42,185.00 A 0.52,0.52 -90.0 0 1 313.94,185.52 Q 314.00,400.69 314.06,616.06 Q 313.37,616.59 314.25,617.04 Q 313.68,640.67 314.18,664.31 A 0.51,0.51 89.4 0 0 314.69,664.81 L 505.33,665.00 A 0.67,0.67 0.0 0 0 506.00,664.33 L 506.00,185.69 A 0.69,0.69 -45.0 0 0 505.31,185.00 L 458.00,185.04 L 315.04,185.00 A 1.03,1.01 -0.0 0 1 314.01,183.99 L 314.29,137.25 Q 315.53,136.99 318.00,137.00 Q 350.01,137.07 458.00,136.96 Z"/>
<path class="highlight-3" fill="#fefefe" d="M 217.75,185.04 Q 217.84,185.31 218.25,185.29 Q 217.82,231.37 218.00,277.46 Q 218.00,277.52 218.12,279.04 Q 218.31,281.34 216.01,281.12 Q 214.60,280.99 214.48,280.99 Q 192.36,280.79 170.25,281.29 Q 169.84,281.31 169.75,281.04 Q 170.00,280.88 170.00,280.25 Q 170.00,233.25 170.00,185.56 A 0.56,0.56 -0.0 0 1 170.56,185.00 L 217.75,185.04 Z"/>
<path class="outline-1" fill="#000000" d="M 458.00,185.04 L 505.31,185.00 A 0.69,0.69 45.0 0 1 506.00,185.69 L 506.00,664.33 A 0.67,0.67 0.1 0 1 505.33,665.00 L 314.69,664.81 A 0.51,0.51 89.4 0 1 314.18,664.31 Q 313.68,640.67 314.25,617.04 L 362.50,616.96 L 457.13,617.00 A 0.87,0.87 -45.0 0 0 458.00,616.13 L 457.96,233.25 L 458.00,185.04 Z"/>
<path class="gold-2" fill="#fdc006" d="M 457.96,233.25 L 458.00,616.13 A 0.87,0.87 45.0 0 1 457.13,617.00 L 362.50,616.96 Q 362.00,615.08 362.00,613.75 Q 361.95,423.53 362.06,234.04 A 1.03,1.02 -90.0 0 1 363.08,233.01 L 457.96,233.25 Z"/>
<path class="highlight-4" fill="#ffffff" d="M 169.75,281.04 Q 169.84,281.31 170.25,281.29 Q 170.00,288.95 170.00,308.00 Q 170.00,437.37 170.00,567.59 A 1.41,1.41 -0.2 0 0 171.41,569.00 L 217.50,569.00 A 0.50,0.50 45.0 0 1 218.00,569.50 L 218.00,663.48 A 1.52,1.52 -0.3 0 0 219.52,665.00 L 265.15,665.00 A 0.85,0.85 -45.0 0 1 266.00,665.85 Q 266.00,687.50 266.03,709.50 Q 266.04,711.26 266.50,712.96 L 218.56,713.00 A 0.56,0.56 -0.2 0 1 218.00,712.44 L 218.00,665.68 A 0.68,0.68 -0.0 0 0 217.32,665.00 L 170.56,665.00 A 0.56,0.56 -0.2 0 1 170.00,664.44 L 170.00,569.69 A 0.69,0.69 89.9 0 0 169.31,569.00 L 122.56,569.00 A 0.56,0.56 -0.2 0 1 122.00,568.44 L 122.00,281.56 A 0.56,0.56 -0.0 0 1 122.56,281.00 L 169.75,281.04 Z"/>
</svg>
