<?xml version="1.0" encoding="UTF-8" standalone="no"?>
<!-- Created with Inkscape (http://www.inkscape.org/) -->

<svg class="ocarina-note" width="34.750389mm" height="45.288189mm" viewBox="0 0 34.750389 45.288189" version="1.1" id="ocarina-note"
  xml:space="preserve" xmlns="http://www.w3.org/2000/svg" xmlns:svg="http://www.w3.org/2000/svg">
  <defs id="defs2" />
  <g id="note-layer" transform="translate(-89.508822,87.132657)">
    <path class="note"
      style="fill:#ffffff;fill-opacity:1;stroke:#000000;stroke-width:0.542;stroke-linejoin:bevel;stroke-dasharray:none;stroke-opacity:1;paint-order:fill markers stroke"
      d="m 96.849815,-42.203025 c -1.5975,-0.12001 -6.48051,-2.11571 -6.98849,-5.20594 -0.50798,-3.09022 1.48162,-5.587791 2.53991,-6.138101 1.05829,-0.55031 3.7252,-1.396961 5.54546,-1.269958 1.75646,0.12255 4.614175,1.693279 4.614175,1.693279 0,0 4.67811,-28.85686 5.18776,-31.5217 0.41349,-2.16207 3.7117,-2.21506 3.7117,-2.21506 0,0 0.41906,-0.0599 1.37692,0.5388 0.95786,0.59866 1.97558,3.35251 2.33478,3.8913 0.3592,0.5388 7.54315,7.96221 8.50101,12.03312 0.95786,4.0709 -0.51951,7.41666 -1.04377,8.99498 -0.45017,1.35522 -2.48445,4.22694 -3.8015,4.94534 -1.41513,0.77189 -4.10561,1.65872 -5.36281,1.47912 -1.25719,-0.1796 -2.90262,-0.87195 -1.64543,-1.59035 1.25719,-0.71839 4.13076,-3.05317 4.78929,-6.16622 0.65853,-3.11304 -3.35251,-9.33913 -3.35251,-9.33913 0,0 -1.38719,-2.38012 -1.80625,-0.88347 -0.41906,1.49666 -3.10277,22.73464 -3.10277,22.73464 0,0 -0.29934,1.73612 -1.2572,3.29265 -0.95786,1.55652 -2.93344,3.819921 -4.48996,4.358711 -1.55652,0.5388 -3.967155,0.501939 -5.750315,0.367989 z"
      id="note" />
  </g>
</svg>